<svg version="1.1" id="avatar2" viewBox="0 0 334.145 334.145" style="enable-background:new 0 0 334.145 334.145;" xml:space="preserve">
	<path style="fill:#e34578;" d="M258.192,319.168c-10.156-18.038-32.901-32.078-61.286-37.615v-21.045
		c20.383-12.644,34.459-39.131,34.459-69.854c0-42.967-27.448-77.796-61.31-77.796s-61.31,34.829-61.31,77.796
		c0,30.729,14.076,57.216,34.459,69.854v21.051c-29.9,5.812-53.582,21.027-62.867,40.426C32.203,292.627,0,239.624,0,179.233
		C0,87.11,74.95,12.16,167.072,12.16s167.072,74.95,167.072,167.072C334.145,237.762,303.875,289.316,258.192,319.168z"/>
</svg>
